<?xml version="1.0" standalone="no"?>
<!DOCTYPE svg PUBLIC "-//W3C//DTD SVG 20010904//EN"
 "http://www.w3.org/TR/2001/REC-SVG-20010904/DTD/svg10.dtd">
<svg version="1.0" xmlns="http://www.w3.org/2000/svg"
 width="1000.000000pt" height="1000.000000pt" viewBox="0 0 1000.000000 1000.000000"
 preserveAspectRatio="xMidYMid meet">
<metadata>
Created by potrace 1.14, written by Peter Selinger 2001-2017
</metadata>
<g transform="translate(0.000000,1000.000000) scale(0.100000,-0.100000)"
fill="#000000" stroke="none">
<path d="M5621 8100 c-46 -28 -86 -50 -88 -50 -2 0 -36 -20 -76 -43 -39 -24
-79 -47 -87 -50 -8 -4 -28 -16 -45 -26 -36 -22 -313 -183 -370 -215 -129 -73
-156 -89 -161 -97 -3 -5 -10 -7 -15 -4 -5 4 -9 1 -9 -4 0 -6 -4 -11 -9 -11
-12 0 -155 -83 -159 -92 -2 -5 -8 -8 -12 -8 -5 0 -63 -31 -129 -70 -66 -38
-124 -70 -130 -70 -6 0 -11 -4 -11 -10 0 -5 -4 -10 -9 -10 -8 0 -182 -98 -231
-130 -8 -6 -26 -16 -40 -23 -14 -6 -29 -15 -35 -20 -20 -16 -428 -247 -436
-247 -5 0 -9 -3 -9 -8 0 -4 -17 -15 -37 -25 -21 -10 -59 -31 -85 -47 -26 -16
-73 -43 -105 -61 -32 -17 -69 -39 -83 -49 -14 -9 -32 -20 -40 -23 -8 -4 -37
-20 -65 -37 -27 -17 -62 -36 -77 -43 -16 -6 -28 -15 -28 -19 0 -4 -4 -8 -10
-8 -8 0 -107 -56 -160 -90 -8 -6 -22 -13 -30 -17 -8 -3 -27 -15 -42 -25 -16
-11 -28 -16 -28 -11 0 4 -4 3 -8 -2 -6 -10 -34 -27 -132 -82 -19 -11 -59 -34
-88 -52 -29 -17 -55 -31 -57 -31 -2 0 -40 -22 -85 -50 -45 -27 -83 -50 -85
-50 -3 0 -50 -27 -105 -60 -55 -33 -102 -60 -104 -60 -2 0 -62 -34 -132 -76
-71 -42 -145 -85 -164 -95 -19 -11 -48 -28 -65 -38 -36 -21 -107 -62 -155 -87
-19 -11 -37 -21 -40 -24 -10 -10 -153 -90 -161 -90 -5 0 -9 -4 -9 -9 0 -5 -10
-13 -22 -17 -12 -3 -49 -23 -82 -43 -34 -21 -68 -40 -76 -44 -8 -4 -31 -17
-50 -28 -54 -33 -431 -250 -465 -268 -16 -9 -35 -21 -42 -28 -7 -6 -23 -15
-36 -19 -12 -4 -24 -10 -27 -14 -3 -3 -30 -20 -60 -36 -30 -16 -61 -35 -68
-41 -7 -7 -18 -13 -24 -13 -5 0 -21 -9 -35 -20 -23 -18 -24 -20 -7 -27 10 -4
46 -24 81 -45 34 -21 67 -38 73 -38 5 0 10 -4 10 -8 0 -5 15 -16 34 -25 29
-13 297 -166 346 -197 23 -14 109 -63 175 -100 33 -18 67 -39 76 -46 8 -8 18
-14 22 -14 3 0 57 -30 119 -67 62 -36 129 -75 148 -85 19 -10 42 -23 50 -28 8
-5 40 -24 70 -41 30 -18 69 -40 85 -49 17 -10 84 -48 150 -86 66 -37 123 -73
127 -79 4 -5 8 -6 8 -1 0 5 8 2 18 -6 9 -9 37 -27 62 -40 62 -35 100 -56 208
-119 51 -30 110 -63 130 -74 20 -11 39 -23 40 -27 2 -5 8 -8 13 -8 5 0 26 -11
47 -23 20 -13 57 -35 82 -49 25 -14 62 -35 83 -47 20 -11 54 -31 75 -42 20
-12 49 -30 64 -40 14 -11 29 -19 32 -19 3 0 43 -22 90 -50 47 -27 89 -50 95
-50 6 0 11 -4 11 -10 0 -5 7 -10 15 -10 8 0 15 -4 15 -10 0 -5 5 -10 10 -10 9
0 88 -44 228 -127 20 -12 53 -29 72 -39 19 -9 42 -23 50 -29 8 -7 35 -23 60
-36 25 -13 47 -26 50 -29 3 -3 31 -19 62 -35 32 -17 58 -33 58 -37 0 -5 4 -8
9 -8 5 0 49 -23 98 -51 48 -29 113 -65 143 -82 30 -17 72 -41 93 -54 21 -13
55 -33 75 -45 48 -27 299 -171 339 -195 119 -70 197 -113 204 -113 5 0 9 -4 9
-10 0 -5 5 -10 10 -10 6 0 47 -21 91 -47 150 -89 194 -114 212 -120 9 -3 17
-9 17 -13 0 -4 8 -11 18 -14 22 -8 80 -41 158 -89 34 -20 65 -37 69 -37 4 0
19 -8 33 -19 15 -10 43 -28 62 -38 19 -11 121 -69 225 -130 229 -132 222 -128
228 -97 2 13 1 24 -2 24 -3 0 -5 46 -3 102 1 57 2 110 2 118 1 46 1 947 0 955
0 6 0 28 -1 50 0 22 0 49 0 60 1 11 1 38 0 60 0 22 0 49 0 60 1 11 1 38 0 60
0 22 0 49 0 60 1 11 1 38 0 60 0 22 0 49 0 60 1 11 1 38 0 60 0 22 0 49 0 60
1 11 1 38 0 60 0 22 0 49 0 60 1 11 1 38 0 60 0 22 0 49 0 60 1 11 1 38 0 60
0 22 0 49 1 60 0 11 1 211 1 445 -1 466 0 439 -2 495 0 22 0 49 0 60 1 11 1
38 0 60 0 22 0 49 0 60 1 11 1 38 0 60 0 22 0 49 0 60 1 11 1 38 0 60 0 43 0
85 1 315 0 80 0 150 0 155 0 6 0 28 -1 50 0 22 0 49 0 60 1 15 2 159 1 290 0
6 0 28 -1 50 0 22 0 49 0 60 1 11 1 38 0 60 0 22 0 49 0 60 1 11 1 38 0 60 0
22 0 49 0 60 1 11 1 38 0 60 0 43 0 85 1 315 0 80 0 150 0 155 0 6 0 28 -1 50
0 22 0 49 0 60 1 15 2 159 1 290 0 6 0 28 -1 50 0 22 0 49 0 60 1 11 1 38 0
60 0 22 0 49 0 60 1 11 1 38 0 60 0 22 0 49 0 60 1 11 0 49 -1 83 -2 35 0 66
4 68 7 5 -2 44 -11 44 -3 0 -44 -23 -90 -50z"/>
<path d="M6501 5065 l-1 -1797 48 28 c26 15 56 32 67 38 11 6 22 13 25 16 3 3
16 11 30 18 14 6 39 20 55 30 17 9 93 54 170 98 77 45 156 91 175 103 19 11
42 24 50 28 8 4 48 26 88 50 41 24 78 43 83 43 5 0 9 4 9 9 0 5 6 11 13 13 6
2 74 39 150 83 75 44 154 89 175 101 20 11 108 62 195 113 87 50 179 104 205
118 26 14 79 45 117 68 39 23 95 55 125 72 30 17 96 54 145 83 92 54 127 74
193 111 20 12 51 30 67 40 17 10 46 27 65 37 19 11 118 68 220 127 102 59 205
119 230 133 54 30 108 62 135 80 11 6 27 15 35 19 8 3 47 26 87 50 39 24 74
43 78 43 4 0 13 7 22 15 8 8 18 13 21 11 4 -2 13 3 21 11 11 12 10 15 -8 20
-12 3 -21 9 -21 14 0 5 -5 9 -11 9 -6 0 -37 15 -68 34 -52 31 -97 58 -161 93
-14 8 -38 23 -55 33 -16 11 -43 26 -60 35 -16 9 -39 21 -50 28 -84 51 -186
107 -195 107 -5 0 -10 5 -10 10 0 6 -7 10 -15 10 -8 0 -15 5 -15 10 0 6 -5 10
-11 10 -6 0 -48 23 -95 50 -47 28 -87 50 -90 50 -3 0 -18 8 -32 19 -26 18 -48
31 -152 89 -25 14 -73 42 -107 63 -35 21 -72 40 -83 44 -11 3 -20 11 -20 16 0
5 -4 9 -9 9 -5 0 -42 19 -83 43 -40 23 -90 51 -110 62 -21 11 -38 23 -38 27 0
5 -6 8 -14 8 -7 0 -25 9 -40 21 -14 11 -26 18 -26 15 0 -3 -15 5 -34 18 -19
12 -48 29 -65 36 -17 7 -31 16 -31 21 0 5 -4 9 -9 9 -9 0 -176 93 -231 128
-14 9 -27 17 -30 17 -3 0 -23 12 -45 26 -22 14 -71 43 -110 64 -38 20 -77 44
-86 51 -8 8 -18 14 -22 14 -3 0 -88 48 -189 106 -101 59 -214 124 -253 147
-38 22 -87 51 -107 64 -21 12 -40 23 -42 23 -2 0 -37 19 -78 43 -40 24 -99 58
-130 76 l-57 32 0 -1796z"/>
</g>
</svg>
