<?xml version="1.0" encoding="utf-8"?>
<?xml-stylesheet href="/style.scss"?>
<svg role="img"  version="1.1" xmlns="http://www.w3.org/2000/svg"  x="0px" y="0px"
	 viewBox="0 0 1000 1000" style="enable-background:new 0 0 1000 1000;" xml:space="preserve" labelledby="head-image-title" aria-describedby="head-image-desc">
<title id="head-image-title"> Header image</title>
<desc id="head-image-desc">rotating header image, decorative with name and cross</desc>
<g>
<g>
	<polygon id="cruz_x5F_" class="svg-head-cross-fill" points="623.85,746.75 702.07,688.13 568.42,509.8 746.75,376.15 688.13,297.93 509.8,431.58 
		376.15,253.25 297.93,311.87 431.58,490.2 253.25,623.85 311.87,702.07 490.2,568.42 	"/>
			<animateTransform
	attributeName="transform"
	attributeType="XML"
	type="rotate"
	from="0 500 500"
	to="360 500 500"
	dur="10s"
	repeatCount="indefinite" />
</g>

	<text id="gou" transform="matrix(1 0 0 1 320.9248 534.7103)" class="svg-head-font svg-head-font-size">gou.init()</text>
	<path class="svg-head-braces-fill" d="M69.73,477.28c26.66,0,42.28-12.95,42.28-38.85v-73.52c0-32,22.85-52.18,55.61-52.18h29.33v44.95h-16.38
			c-9.14,0-15.24,5.71-15.24,18.66v70.09c0,29.71-13.33,45.71-38.09,53.71c24.76,8,38.09,24,38.09,53.71v70.09
			c0,12.95,6.09,18.66,15.24,18.66h16.38v44.95h-29.33c-32.76,0-55.61-20.19-55.61-52.18v-73.52c0-25.9-15.62-38.85-42.28-38.85
			V477.28z"/>
	<path class="svg-head-braces-fill" d="M803.05,687.54V642.6h16.38c9.14,0,15.24-5.71,15.24-18.66v-70.09c0-29.71,13.33-45.71,38.09-53.71
			c-24.76-8-38.09-24-38.09-53.71v-70.09c0-12.95-6.1-18.66-15.24-18.66h-16.38v-44.95h29.33c32.76,0,55.61,20.19,55.61,52.18v73.52
			c0,25.9,15.62,38.85,42.28,38.85v45.71c-26.66,0-42.28,12.95-42.28,38.85v73.52c0,32-22.85,52.18-55.61,52.18H803.05z"/>
</g>
</svg>
