<?xml version="1.0" encoding="utf-8"?>
<?xml-stylesheet href="/style.scss"?>
<!-- Generator: Adobe Illustrator 26.2.1, SVG Export Plug-In . SVG Version: 6.00 Build 0)  -->
<svg role="img" aria-labelledby="picture" version="1.1" id="Layer_1" xmlns="http://www.w3.org/2000/svg" xmlns:xlink="http://www.w3.org/1999/xlink" x="0px" y="0px"
	 viewBox="0 0 1000 1000" style="enable-background:new 0 0 1000 1000;" xml:space="preserve">
 <title id="picture">picture of antonio de gou</title>
<g>
	<path class="self-red" d="M523.91,187.93c-159.68,0-289.12,129.45-289.12,289.12c0,159.68,129.45,289.12,289.12,289.12
		s289.12-129.45,289.12-289.12C813.03,317.37,683.59,187.93,523.91,187.93z M523.91,647.78c-94.29,0-170.73-76.44-170.73-170.73
		c0-94.29,76.44-170.73,170.73-170.73c94.29,0,170.73,76.44,170.73,170.73C694.64,571.34,618.2,647.78,523.91,647.78z"/>
	<g id="_x30_SOPHf.tif">
		
			<image style="overflow:visible;" width="575" height="983" id="Layer_1_00000001665013403481067850000005062623840399501456_" xlink:href="479E3A03679BC0F4.png"  transform="matrix(0.588 0 0 0.588 353.7222 84.83)">
		</image>
	</g>
	<path class="self-red" d="M234.79,477.05c0,159.68,129.45,289.12,289.12,289.12s289.12-129.45,289.12-289.12h-118.4
		c0,94.29-76.44,170.73-170.73,170.73c-94.29,0-170.73-76.44-170.73-170.73H234.79z"/>
</g>
<g>
	<path class="self-dark" d="M315.31,177.21c12.51,0,19.83-6.07,19.83-18.22V124.5c0-15.01,10.72-24.48,26.08-24.48h13.76v21.08h-7.68
		c-4.29,0-7.15,2.68-7.15,8.75v32.87c0,13.94-6.25,21.44-17.87,25.19c11.61,3.75,17.87,11.26,17.87,25.19v32.87
		c0,6.07,2.86,8.75,7.15,8.75h7.68v21.08h-13.76c-15.36,0-26.08-9.47-26.08-24.48v-34.48c0-12.15-7.32-18.22-19.83-18.22V177.21z"/>
	<path class="self-dark" d="M622.43,275.83v-21.08h7.68c4.29,0,7.15-2.68,7.15-8.75v-32.87c0-13.94,6.25-21.44,17.87-25.19
		c-11.61-3.75-17.87-11.26-17.87-25.19v-32.87c0-6.07-2.86-8.75-7.15-8.75h-7.68v-21.08h13.76c15.36,0,26.08,9.47,26.08,24.48v34.48
		c0,12.15,7.33,18.22,19.83,18.22v21.44c-12.51,0-19.83,6.07-19.83,18.22v34.48c0,15.01-10.72,24.48-26.08,24.48H622.43z"/>
</g>
<linearGradient id="SVGID_1_" gradientUnits="userSpaceOnUse" x1="915.105" y1="183.5883" x2="981.2023" y2="183.5883">
	<stop  offset="0" class="selfgrad1"  />
	<stop  offset="1" class="selfgrad2"  />
</linearGradient>
<path class="self-link1" d="M948.15,150.54c-18.25,0-33.05,14.8-33.05,33.05c0,18.25,14.8,33.05,33.05,33.05s33.05-14.8,33.05-33.05
	C981.2,165.34,966.41,150.54,948.15,150.54z M948.15,203.1c-10.78,0-19.52-8.74-19.52-19.51c0-10.78,8.74-19.51,19.52-19.51
	s19.52,8.74,19.52,19.51C967.67,194.37,958.93,203.1,948.15,203.1z"/>
<polygon class="self-dark" points="274.59,588.03 235.81,655.2 313.37,655.2 "/>
<polygon class="self-dark" points="773.82,183.59 706.65,144.81 706.65,222.37 "/>
<polygon class="self-dark" points="848.89,183.59 803.05,157.12 803.05,210.05 "/>
<polygon class="self-dark" points="903.4,183.59 871.94,165.43 871.94,201.75 "/>
<polygon class="self-dark" points="218.33,713.61 151.16,674.83 151.16,752.39 "/>
<polygon class="self-dark" points="122.38,713.61 85.58,692.37 85.58,734.86 "/>
<polygon class="self-light" points="904.56,749.94 870.65,716.03 793.33,793.35 716.01,716.03 682.1,749.94 759.42,827.26 682.1,904.58 
	716.01,938.49 793.33,861.17 870.65,938.49 904.56,904.58 827.24,827.26 "/>
<polygon class="self-light" points="827.24,692.46 816.91,682.12 793.33,705.69 769.76,682.12 759.42,692.46 782.99,716.03 759.42,739.6 
	769.76,749.94 793.33,726.37 816.91,749.94 827.24,739.6 803.67,716.03 "/>
<polygon class="self-dark" points="309.72,721.33 309.83,708.67 280.97,708.43 281.21,679.58 268.56,679.47 268.32,708.32 239.46,708.08 
	239.35,720.74 268.21,720.98 267.97,749.84 280.62,749.94 280.87,721.09 "/>
<linearGradient id="SVGID_00000088129840299566660430000016416483602628677537_" gradientUnits="userSpaceOnUse" x1="10.1477" y1="713.6138" x2="56.8056" y2="713.6138">
	<stop  offset="0" class="selfgrad1"  />
	<stop  offset="1" class="selfgrad2"  />
</linearGradient>
<circle style="fill:url(#SVGID_00000088129840299566660430000016416483602628677537_);" cx="33.48" cy="713.61" r="23.33"/>
</svg>
